<?xml version="1.0" encoding="UTF-8" standalone="no"?>
<!DOCTYPE svg PUBLIC "-//W3C//DTD SVG 1.1//EN"
 "http://www.w3.org/Graphics/SVG/1.1/DTD/svg11.dtd">
<!-- Generated by graphviz version 2.43.0 (0)
 -->
<!-- Title: G Pages: 1 -->
<svg width="1450pt" height="701pt"
 viewBox="0.00 0.00 1450.00 701.00" xmlns="http://www.w3.org/2000/svg" xmlns:xlink="http://www.w3.org/1999/xlink">
<g id="graph0" class="graph" transform="scale(1 1) rotate(0) translate(4 697)">
<title>G</title>
<polygon fill="white" stroke="transparent" points="-4,4 -4,-697 1446,-697 1446,4 -4,4"/>
<g id="clust1" class="cluster">
<title>cluster_module.ec2</title>
<polygon fill="none" stroke="black" points="8,-311 8,-494 739,-494 739,-311 8,-311"/>
<text text-anchor="middle" x="373.5" y="-478.8" font-family="sans-serif" font-size="14.00">module.ec2</text>
</g>
<g id="clust2" class="cluster">
<title>cluster_module.iam</title>
<polygon fill="none" stroke="black" points="485,-502 485,-685 1434,-685 1434,-502 485,-502"/>
<text text-anchor="middle" x="959.5" y="-669.8" font-family="sans-serif" font-size="14.00">module.iam</text>
</g>
<g id="clust3" class="cluster">
<title>cluster_module.igw</title>
<polygon fill="none" stroke="black" points="234.5,-8 234.5,-83 447.5,-83 447.5,-8 234.5,-8"/>
<text text-anchor="middle" x="341" y="-67.8" font-family="sans-serif" font-size="14.00">module.igw</text>
</g>
<g id="clust4" class="cluster">
<title>cluster_module.ngw</title>
<polygon fill="none" stroke="black" points="284,-91 284,-166 740,-166 740,-91 284,-91"/>
<text text-anchor="middle" x="512" y="-150.8" font-family="sans-serif" font-size="14.00">module.ngw</text>
</g>
<g id="clust5" class="cluster">
<title>cluster_module.rt</title>
<polygon fill="none" stroke="black" points="843.5,-51 843.5,-180 1416,-180 1416,-51 843.5,-51"/>
<text text-anchor="middle" x="1129.75" y="-164.8" font-family="sans-serif" font-size="14.00">module.rt</text>
</g>
<g id="clust6" class="cluster">
<title>cluster_module.subnet</title>
<polygon fill="none" stroke="black" points="257,-174 257,-303 425,-303 425,-174 257,-174"/>
<text text-anchor="middle" x="341" y="-287.8" font-family="sans-serif" font-size="14.00">module.subnet</text>
</g>
<g id="clust7" class="cluster">
<title>cluster_module.vpc</title>
<polygon fill="none" stroke="black" points="42,-201 42,-276 163,-276 163,-201 42,-201"/>
<text text-anchor="middle" x="102.5" y="-260.8" font-family="sans-serif" font-size="14.00">module.vpc</text>
</g>
<!-- module.ec2.aws_instance.bastion -->
<g id="node1" class="node">
<title>module.ec2.aws_instance.bastion</title>
<polygon fill="none" stroke="black" points="731,-355 567,-355 567,-319 731,-319 731,-355"/>
<text text-anchor="middle" x="649" y="-333.3" font-family="sans-serif" font-size="14.00">aws_instance.bastion</text>
</g>
<!-- module.ec2.aws_key_pair.bastion -->
<g id="node2" class="node">
<title>module.ec2.aws_key_pair.bastion</title>
<polygon fill="none" stroke="black" points="422,-463 260,-463 260,-427 422,-427 422,-463"/>
<text text-anchor="middle" x="341" y="-441.3" font-family="sans-serif" font-size="14.00">aws_key_pair.bastion</text>
</g>
<!-- module.ec2.aws_instance.bastion&#45;&gt;module.ec2.aws_key_pair.bastion -->
<g id="edge1" class="edge">
<title>module.ec2.aws_instance.bastion&#45;&gt;module.ec2.aws_key_pair.bastion</title>
<path fill="none" stroke="black" d="M610.68,-355.08C572.69,-372.93 511.78,-400.1 457,-418 449.01,-420.61 440.64,-423.08 432.2,-425.38"/>
<polygon fill="black" stroke="black" points="431.06,-422.06 422.29,-428 432.86,-428.83 431.06,-422.06"/>
</g>
<!-- module.ec2.aws_security_group.bastion_sg -->
<g id="node3" class="node">
<title>module.ec2.aws_security_group.bastion_sg</title>
<polygon fill="none" stroke="black" points="457,-355 225,-355 225,-319 457,-319 457,-355"/>
<text text-anchor="middle" x="341" y="-333.3" font-family="sans-serif" font-size="14.00">aws_security_group.bastion_sg</text>
</g>
<!-- module.ec2.aws_instance.bastion&#45;&gt;module.ec2.aws_security_group.bastion_sg -->
<g id="edge2" class="edge">
<title>module.ec2.aws_instance.bastion&#45;&gt;module.ec2.aws_security_group.bastion_sg</title>
<path fill="none" stroke="black" d="M566.8,-337C536.39,-337 501.09,-337 467.6,-337"/>
<polygon fill="black" stroke="black" points="467.28,-333.5 457.28,-337 467.28,-340.5 467.28,-333.5"/>
</g>
<!-- module.subnet.aws_subnet.public -->
<g id="node20" class="node">
<title>module.subnet.aws_subnet.public</title>
<polygon fill="none" stroke="black" points="413.5,-218 268.5,-218 268.5,-182 413.5,-182 413.5,-218"/>
<text text-anchor="middle" x="341" y="-196.3" font-family="sans-serif" font-size="14.00">aws_subnet.public</text>
</g>
<!-- module.ec2.aws_instance.bastion&#45;&gt;module.subnet.aws_subnet.public -->
<g id="edge3" class="edge">
<title>module.ec2.aws_instance.bastion&#45;&gt;module.subnet.aws_subnet.public</title>
<path fill="none" stroke="black" d="M622.35,-318.95C586.8,-294.71 519.81,-251.84 457,-227 446.38,-222.8 434.94,-219.15 423.54,-216.01"/>
<polygon fill="black" stroke="black" points="424.11,-212.54 413.55,-213.38 422.33,-219.31 424.11,-212.54"/>
</g>
<!-- module.ec2.tls_private_key.bastion -->
<g id="node5" class="node">
<title>module.ec2.tls_private_key.bastion</title>
<polygon fill="none" stroke="black" points="189,-436 16,-436 16,-400 189,-400 189,-436"/>
<text text-anchor="middle" x="102.5" y="-414.3" font-family="sans-serif" font-size="14.00">tls_private_key.bastion</text>
</g>
<!-- module.ec2.aws_key_pair.bastion&#45;&gt;module.ec2.tls_private_key.bastion -->
<g id="edge4" class="edge">
<title>module.ec2.aws_key_pair.bastion&#45;&gt;module.ec2.tls_private_key.bastion</title>
<path fill="none" stroke="black" d="M259.93,-435.86C240.44,-433.63 219.41,-431.23 199.27,-428.93"/>
<polygon fill="black" stroke="black" points="199.49,-425.44 189.15,-427.78 198.69,-432.39 199.49,-425.44"/>
</g>
<!-- module.vpc.aws_vpc.this -->
<g id="node21" class="node">
<title>module.vpc.aws_vpc.this</title>
<polygon fill="none" stroke="black" points="155,-245 50,-245 50,-209 155,-209 155,-245"/>
<text text-anchor="middle" x="102.5" y="-223.3" font-family="sans-serif" font-size="14.00">aws_vpc.this</text>
</g>
<!-- module.ec2.aws_security_group.bastion_sg&#45;&gt;module.vpc.aws_vpc.this -->
<g id="edge5" class="edge">
<title>module.ec2.aws_security_group.bastion_sg&#45;&gt;module.vpc.aws_vpc.this</title>
<path fill="none" stroke="black" d="M257.51,-319C246.39,-315.56 235.27,-311.57 225,-307 191.91,-292.28 157.77,-268.95 134.14,-251.27"/>
<polygon fill="black" stroke="black" points="136.01,-248.3 125.93,-245.04 131.78,-253.88 136.01,-248.3"/>
</g>
<!-- module.ec2.local_sensitive_file.pem -->
<g id="node4" class="node">
<title>module.ec2.local_sensitive_file.pem</title>
<polygon fill="none" stroke="black" points="430.5,-409 251.5,-409 251.5,-373 430.5,-373 430.5,-409"/>
<text text-anchor="middle" x="341" y="-387.3" font-family="sans-serif" font-size="14.00">local_sensitive_file.pem</text>
</g>
<!-- module.ec2.local_sensitive_file.pem&#45;&gt;module.ec2.tls_private_key.bastion -->
<g id="edge6" class="edge">
<title>module.ec2.local_sensitive_file.pem&#45;&gt;module.ec2.tls_private_key.bastion</title>
<path fill="none" stroke="black" d="M251.26,-401.13C234.28,-403.07 216.43,-405.11 199.24,-407.07"/>
<polygon fill="black" stroke="black" points="198.74,-403.6 189.2,-408.22 199.54,-410.56 198.74,-403.6"/>
</g>
<!-- module.iam.data.aws_iam_policy_document.dev_policy -->
<g id="node6" class="node">
<title>module.iam.data.aws_iam_policy_document.dev_policy</title>
<polygon fill="none" stroke="black" points="805,-654 493,-654 493,-618 805,-618 805,-654"/>
<text text-anchor="middle" x="649" y="-632.3" font-family="sans-serif" font-size="14.00">data.aws_iam_policy_document.dev_policy</text>
</g>
<!-- module.iam.aws_iam_group.this -->
<g id="node7" class="node">
<title>module.iam.aws_iam_group.this</title>
<polygon fill="none" stroke="black" points="1018.5,-600 865.5,-600 865.5,-564 1018.5,-564 1018.5,-600"/>
<text text-anchor="middle" x="942" y="-578.3" font-family="sans-serif" font-size="14.00">aws_iam_group.this</text>
</g>
<!-- module.iam.aws_iam_group_policy_attachment.attach -->
<g id="node8" class="node">
<title>module.iam.aws_iam_group_policy_attachment.attach</title>
<polygon fill="none" stroke="black" points="1405,-640 1100,-640 1100,-604 1405,-604 1405,-640"/>
<text text-anchor="middle" x="1252.5" y="-618.3" font-family="sans-serif" font-size="14.00">aws_iam_group_policy_attachment.attach</text>
</g>
<!-- module.iam.aws_iam_group_policy_attachment.attach&#45;&gt;module.iam.aws_iam_group.this -->
<g id="edge7" class="edge">
<title>module.iam.aws_iam_group_policy_attachment.attach&#45;&gt;module.iam.aws_iam_group.this</title>
<path fill="none" stroke="black" d="M1112.59,-603.99C1084.07,-600.29 1054.85,-596.5 1028.86,-593.13"/>
<polygon fill="black" stroke="black" points="1029.07,-589.63 1018.7,-591.82 1028.17,-596.57 1029.07,-589.63"/>
</g>
<!-- module.iam.aws_iam_policy.developers -->
<g id="node9" class="node">
<title>module.iam.aws_iam_policy.developers</title>
<polygon fill="none" stroke="black" points="1043,-654 841,-654 841,-618 1043,-618 1043,-654"/>
<text text-anchor="middle" x="942" y="-632.3" font-family="sans-serif" font-size="14.00">aws_iam_policy.developers</text>
</g>
<!-- module.iam.aws_iam_group_policy_attachment.attach&#45;&gt;module.iam.aws_iam_policy.developers -->
<g id="edge8" class="edge">
<title>module.iam.aws_iam_group_policy_attachment.attach&#45;&gt;module.iam.aws_iam_policy.developers</title>
<path fill="none" stroke="black" d="M1099.96,-628.88C1084.36,-629.58 1068.72,-630.29 1053.69,-630.98"/>
<polygon fill="black" stroke="black" points="1053.22,-627.49 1043.38,-631.44 1053.53,-634.49 1053.22,-627.49"/>
</g>
<!-- module.iam.aws_iam_policy.developers&#45;&gt;module.iam.data.aws_iam_policy_document.dev_policy -->
<g id="edge9" class="edge">
<title>module.iam.aws_iam_policy.developers&#45;&gt;module.iam.data.aws_iam_policy_document.dev_policy</title>
<path fill="none" stroke="black" d="M840.85,-636C832.52,-636 823.97,-636 815.33,-636"/>
<polygon fill="black" stroke="black" points="815.14,-632.5 805.14,-636 815.14,-639.5 815.14,-632.5"/>
</g>
<!-- module.iam.aws_iam_user.users -->
<g id="node10" class="node">
<title>module.iam.aws_iam_user.users</title>
<polygon fill="none" stroke="black" points="1019.5,-546 864.5,-546 864.5,-510 1019.5,-510 1019.5,-546"/>
<text text-anchor="middle" x="942" y="-524.3" font-family="sans-serif" font-size="14.00">aws_iam_user.users</text>
</g>
<!-- module.iam.aws_iam_user_group_membership.membership -->
<g id="node11" class="node">
<title>module.iam.aws_iam_user_group_membership.membership</title>
<polygon fill="none" stroke="black" points="1426,-559 1079,-559 1079,-523 1426,-523 1426,-559"/>
<text text-anchor="middle" x="1252.5" y="-537.3" font-family="sans-serif" font-size="14.00">aws_iam_user_group_membership.membership</text>
</g>
<!-- module.iam.aws_iam_user_group_membership.membership&#45;&gt;module.iam.aws_iam_group.this -->
<g id="edge10" class="edge">
<title>module.iam.aws_iam_user_group_membership.membership&#45;&gt;module.iam.aws_iam_group.this</title>
<path fill="none" stroke="black" d="M1115.74,-559.04C1086.21,-562.97 1055.76,-567.01 1028.81,-570.6"/>
<polygon fill="black" stroke="black" points="1028.12,-567.16 1018.67,-571.94 1029.04,-574.1 1028.12,-567.16"/>
</g>
<!-- module.iam.aws_iam_user_group_membership.membership&#45;&gt;module.iam.aws_iam_user.users -->
<g id="edge11" class="edge">
<title>module.iam.aws_iam_user_group_membership.membership&#45;&gt;module.iam.aws_iam_user.users</title>
<path fill="none" stroke="black" d="M1078.76,-533.72C1061.82,-533.01 1045.18,-532.31 1029.68,-531.65"/>
<polygon fill="black" stroke="black" points="1029.8,-528.15 1019.66,-531.23 1029.5,-535.15 1029.8,-528.15"/>
</g>
<!-- module.igw.aws_internet_gateway.this -->
<g id="node12" class="node">
<title>module.igw.aws_internet_gateway.this</title>
<polygon fill="none" stroke="black" points="439.5,-52 242.5,-52 242.5,-16 439.5,-16 439.5,-52"/>
<text text-anchor="middle" x="341" y="-30.3" font-family="sans-serif" font-size="14.00">aws_internet_gateway.this</text>
</g>
<!-- module.igw.aws_internet_gateway.this&#45;&gt;module.vpc.aws_vpc.this -->
<g id="edge12" class="edge">
<title>module.igw.aws_internet_gateway.this&#45;&gt;module.vpc.aws_vpc.this</title>
<path fill="none" stroke="black" d="M289.03,-52.01C268.07,-60.76 244.25,-72.55 225,-87 181.66,-119.53 142.77,-169.83 121.23,-200.46"/>
<polygon fill="black" stroke="black" points="118.19,-198.7 115.37,-208.92 123.94,-202.69 118.19,-198.7"/>
</g>
<!-- module.ngw.aws_eip.nat -->
<g id="node13" class="node">
<title>module.ngw.aws_eip.nat</title>
<polygon fill="none" stroke="black" points="390,-135 292,-135 292,-99 390,-99 390,-135"/>
<text text-anchor="middle" x="341" y="-113.3" font-family="sans-serif" font-size="14.00">aws_eip.nat</text>
</g>
<!-- module.ngw.aws_nat_gateway.this -->
<g id="node14" class="node">
<title>module.ngw.aws_nat_gateway.this</title>
<polygon fill="none" stroke="black" points="732,-135 566,-135 566,-99 732,-99 732,-135"/>
<text text-anchor="middle" x="649" y="-113.3" font-family="sans-serif" font-size="14.00">aws_nat_gateway.this</text>
</g>
<!-- module.ngw.aws_nat_gateway.this&#45;&gt;module.ngw.aws_eip.nat -->
<g id="edge13" class="edge">
<title>module.ngw.aws_nat_gateway.this&#45;&gt;module.ngw.aws_eip.nat</title>
<path fill="none" stroke="black" d="M566,-117C513.82,-117 447.5,-117 400.6,-117"/>
<polygon fill="black" stroke="black" points="400.3,-113.5 390.3,-117 400.3,-120.5 400.3,-113.5"/>
</g>
<!-- module.ngw.aws_nat_gateway.this&#45;&gt;module.subnet.aws_subnet.public -->
<g id="edge14" class="edge">
<title>module.ngw.aws_nat_gateway.this&#45;&gt;module.subnet.aws_subnet.public</title>
<path fill="none" stroke="black" d="M583.97,-135.04C546.91,-145.4 499.37,-158.6 457,-170 445.64,-173.06 433.63,-176.24 421.83,-179.35"/>
<polygon fill="black" stroke="black" points="420.77,-176.01 411.98,-181.93 422.54,-182.78 420.77,-176.01"/>
</g>
<!-- module.rt.aws_route_table.private -->
<g id="node15" class="node">
<title>module.rt.aws_route_table.private</title>
<polygon fill="none" stroke="black" points="1032.5,-149 851.5,-149 851.5,-113 1032.5,-113 1032.5,-149"/>
<text text-anchor="middle" x="942" y="-127.3" font-family="sans-serif" font-size="14.00">aws_route_table.private</text>
</g>
<!-- module.rt.aws_route_table.private&#45;&gt;module.ngw.aws_nat_gateway.this -->
<g id="edge15" class="edge">
<title>module.rt.aws_route_table.private&#45;&gt;module.ngw.aws_nat_gateway.this</title>
<path fill="none" stroke="black" d="M851.32,-126.69C816.81,-125.03 777.38,-123.13 742.6,-121.46"/>
<polygon fill="black" stroke="black" points="742.61,-117.95 732.45,-120.97 742.27,-124.94 742.61,-117.95"/>
</g>
<!-- module.rt.aws_route_table.public -->
<g id="node16" class="node">
<title>module.rt.aws_route_table.public</title>
<polygon fill="none" stroke="black" points="1029,-95 855,-95 855,-59 1029,-59 1029,-95"/>
<text text-anchor="middle" x="942" y="-73.3" font-family="sans-serif" font-size="14.00">aws_route_table.public</text>
</g>
<!-- module.rt.aws_route_table.public&#45;&gt;module.igw.aws_internet_gateway.this -->
<g id="edge16" class="edge">
<title>module.rt.aws_route_table.public&#45;&gt;module.igw.aws_internet_gateway.this</title>
<path fill="none" stroke="black" d="M854.86,-70.82C748.09,-63.15 566.08,-50.09 450.06,-41.76"/>
<polygon fill="black" stroke="black" points="449.96,-38.24 439.74,-41.02 449.46,-45.22 449.96,-38.24"/>
</g>
<!-- module.rt.aws_route_table_association.private_assoc -->
<g id="node17" class="node">
<title>module.rt.aws_route_table_association.private_assoc</title>
<polygon fill="none" stroke="black" points="1408,-149 1097,-149 1097,-113 1408,-113 1408,-149"/>
<text text-anchor="middle" x="1252.5" y="-127.3" font-family="sans-serif" font-size="14.00">aws_route_table_association.private_assoc</text>
</g>
<!-- module.rt.aws_route_table_association.private_assoc&#45;&gt;module.rt.aws_route_table.private -->
<g id="edge17" class="edge">
<title>module.rt.aws_route_table_association.private_assoc&#45;&gt;module.rt.aws_route_table.private</title>
<path fill="none" stroke="black" d="M1096.8,-131C1078.45,-131 1060.11,-131 1042.82,-131"/>
<polygon fill="black" stroke="black" points="1042.76,-127.5 1032.76,-131 1042.76,-134.5 1042.76,-127.5"/>
</g>
<!-- module.subnet.aws_subnet.private -->
<g id="node19" class="node">
<title>module.subnet.aws_subnet.private</title>
<polygon fill="none" stroke="black" points="417,-272 265,-272 265,-236 417,-236 417,-272"/>
<text text-anchor="middle" x="341" y="-250.3" font-family="sans-serif" font-size="14.00">aws_subnet.private</text>
</g>
<!-- module.rt.aws_route_table_association.private_assoc&#45;&gt;module.subnet.aws_subnet.private -->
<g id="edge18" class="edge">
<title>module.rt.aws_route_table_association.private_assoc&#45;&gt;module.subnet.aws_subnet.private</title>
<path fill="none" stroke="black" d="M1211.71,-149.06C1170.45,-166.9 1103.61,-193.28 1043,-206 824.54,-251.84 560.24,-256.67 427.24,-255.7"/>
<polygon fill="black" stroke="black" points="427.14,-252.2 417.11,-255.61 427.08,-259.2 427.14,-252.2"/>
</g>
<!-- module.rt.aws_route_table_association.public_assoc -->
<g id="node18" class="node">
<title>module.rt.aws_route_table_association.public_assoc</title>
<polygon fill="none" stroke="black" points="1404.5,-95 1100.5,-95 1100.5,-59 1404.5,-59 1404.5,-95"/>
<text text-anchor="middle" x="1252.5" y="-73.3" font-family="sans-serif" font-size="14.00">aws_route_table_association.public_assoc</text>
</g>
<!-- module.rt.aws_route_table_association.public_assoc&#45;&gt;module.rt.aws_route_table.public -->
<g id="edge19" class="edge">
<title>module.rt.aws_route_table_association.public_assoc&#45;&gt;module.rt.aws_route_table.public</title>
<path fill="none" stroke="black" d="M1100.41,-77C1079.61,-77 1058.74,-77 1039.29,-77"/>
<polygon fill="black" stroke="black" points="1039.27,-73.5 1029.27,-77 1039.27,-80.5 1039.27,-73.5"/>
</g>
<!-- module.rt.aws_route_table_association.public_assoc&#45;&gt;module.subnet.aws_subnet.public -->
<g id="edge20" class="edge">
<title>module.rt.aws_route_table_association.public_assoc&#45;&gt;module.subnet.aws_subnet.public</title>
<path fill="none" stroke="black" d="M1100.48,-92.76C1092.98,-95.95 1085.77,-99.67 1079,-104 1054.7,-119.54 1068.01,-143.63 1043,-158 939.74,-217.3 585.93,-210.56 424.04,-204.03"/>
<polygon fill="black" stroke="black" points="423.8,-200.52 413.66,-203.6 423.51,-207.51 423.8,-200.52"/>
</g>
<!-- module.subnet.aws_subnet.private&#45;&gt;module.vpc.aws_vpc.this -->
<g id="edge21" class="edge">
<title>module.subnet.aws_subnet.private&#45;&gt;module.vpc.aws_vpc.this</title>
<path fill="none" stroke="black" d="M264.84,-245.42C232.76,-241.76 195.78,-237.54 165.32,-234.06"/>
<polygon fill="black" stroke="black" points="165.59,-230.57 155.26,-232.91 164.8,-237.52 165.59,-230.57"/>
</g>
<!-- module.subnet.aws_subnet.public&#45;&gt;module.vpc.aws_vpc.this -->
<g id="edge22" class="edge">
<title>module.subnet.aws_subnet.public&#45;&gt;module.vpc.aws_vpc.this</title>
<path fill="none" stroke="black" d="M268.4,-208.17C235.52,-211.93 196.92,-216.34 165.33,-219.94"/>
<polygon fill="black" stroke="black" points="164.87,-216.47 155.33,-221.08 165.66,-223.43 164.87,-216.47"/>
</g>
</g>
</svg>
